<svg xmlns="http://www.w3.org/2000/svg" width="420" height="240" viewBox="0 0 420 240" role="img" aria-labelledby="title description">
<title id="title">GitHub contributions · last year</title>
<desc id="description">ozalpslan. 567 contributions from 2025-10-05 — 2026-10-05, using GitHub&#x27;s native calendar window. Weekly totals: 2025-10-05 to 2025-10-11: 10; 2025-10-12 to 2025-10-18: 12; 2025-10-19 to 2025-10-25: 2; 2025-10-26 to 2025-11-01: 5; 2025-11-02 to 2025-11-08: 5; 2025-11-09 to 2025-11-15: 2; 2025-11-16 to 2025-11-22: 0; 2025-11-23 to 2025-11-29: 0; 2025-11-30 to 2025-12-06: 1; 2025-12-07 to 2025-12-13: 3; 2025-12-14 to 2025-12-20: 25; 2025-12-21 to 2025-12-27: 3; 2025-12-28 to 2026-01-03: 22; 2026-01-04 to 2026-01-10: 0; 2026-01-11 to 2026-01-17: 0; 2026-01-18 to 2026-01-24: 0; 2026-01-25 to 2026-01-31: 0; 2026-02-01 to 2026-02-07: 0; 2026-02-08 to 2026-02-14: 0; 2026-02-15 to 2026-02-21: 0; 2026-02-22 to 2026-02-28: 4; 2026-03-01 to 2026-03-07: 3; 2026-03-08 to 2026-03-14: 4; 2026-03-15 to 2026-03-21: 2; 2026-03-22 to 2026-03-28: 3; 2026-03-29 to 2026-04-04: 30; 2026-04-05 to 2026-04-11: 20; 2026-04-12 to 2026-04-18: 8; 2026-04-19 to 2026-04-25: 14; 2026-04-26 to 2026-05-02: 20; 2026-05-03 to 2026-05-09: 0; 2026-05-10 to 2026-05-16: 0; 2026-05-17 to 2026-05-23: 0; 2026-05-24 to 2026-05-30: 0; 2026-05-31 to 2026-06-06: 2; 2026-06-07 to 2026-06-13: 0; 2026-06-14 to 2026-06-20: 0; 2026-06-21 to 2026-06-27: 1; 2026-06-28 to 2026-07-04: 0; 2026-07-05 to 2026-07-11: 7; 2026-07-12 to 2026-07-18: 24; 2026-07-19 to 2026-07-25: 12; 2026-07-26 to 2026-08-01: 23; 2026-08-02 to 2026-08-08: 49; 2026-08-09 to 2026-08-15: 23; 2026-08-16 to 2026-08-22: 30; 2026-08-23 to 2026-08-29: 22; 2026-08-30 to 2026-09-05: 26; 2026-09-06 to 2026-09-12: 47; 2026-09-13 to 2026-09-19: 52; 2026-09-20 to 2026-09-26: 27; 2026-09-27 to 2026-10-03: 21; 2026-10-04 to 2026-10-05: 3.</desc>
<g font-family="ui-monospace, SFMono-Regular, Menlo, Consolas, monospace"><text x="0" y="22" fill="#E6EDF3" font-size="15" text-anchor="start" >567 contributions in the last year</text><text x="0" y="44" fill="#919BA6" font-size="11" text-anchor="start" >Weekly totals</text><path d="M32 173.00H404" stroke="#30363D" stroke-dasharray="2 5"/><text x="20" y="177.0" fill="#919BA6" font-size="11" text-anchor="end" >0</text><path d="M32 136.33H404" stroke="#30363D" stroke-dasharray="2 5"/><text x="20" y="140.33" fill="#919BA6" font-size="11" text-anchor="end" >18</text><path d="M32 99.67H404" stroke="#30363D" stroke-dasharray="2 5"/><text x="20" y="103.67" fill="#919BA6" font-size="11" text-anchor="end" >36</text><path d="M32 63.00H404" stroke="#30363D" stroke-dasharray="2 5"/><text x="20" y="67.0" fill="#919BA6" font-size="11" text-anchor="end" >54</text><path d="M32.00,152.63 L39.15,148.56 L46.31,168.93 L53.46,162.81 L60.62,162.81 L67.77,168.93 L74.92,173.00 L82.08,173.00 L89.23,170.96 L96.38,166.89 L103.54,122.07 L110.69,166.89 L117.85,128.19 L125.00,173.00 L132.15,173.00 L139.31,173.00 L146.46,173.00 L153.62,173.00 L160.77,173.00 L167.92,173.00 L175.08,164.85 L182.23,166.89 L189.38,164.85 L196.54,168.93 L203.69,166.89 L210.85,111.89 L218.00,132.26 L225.15,156.70 L232.31,144.48 L239.46,132.26 L246.62,173.00 L253.77,173.00 L260.92,173.00 L268.08,173.00 L275.23,168.93 L282.38,173.00 L289.54,173.00 L296.69,170.96 L303.85,173.00 L311.00,158.74 L318.15,124.11 L325.31,148.56 L332.46,126.15 L339.62,73.19 L346.77,126.15 L353.92,111.89 L361.08,128.19 L368.23,120.04 L375.38,77.26 L382.54,67.07 L389.69,118.00 L396.85,130.22 L404.00,166.89" fill="none" stroke="#00B2EF" stroke-width="2.3" stroke-linejoin="round" stroke-linecap="round"/><circle cx="32.00" cy="152.63" r="1.9" fill="#ED0090"><title>2025-10-05 to 2025-10-11: 10 contributions</title></circle><circle cx="39.15" cy="148.56" r="1.9" fill="#ED0090"><title>2025-10-12 to 2025-10-18: 12 contributions</title></circle><circle cx="46.31" cy="168.93" r="1.9" fill="#ED0090"><title>2025-10-19 to 2025-10-25: 2 contributions</title></circle><circle cx="53.46" cy="162.81" r="1.9" fill="#ED0090"><title>2025-10-26 to 2025-11-01: 5 contributions</title></circle><circle cx="60.62" cy="162.81" r="1.9" fill="#ED0090"><title>2025-11-02 to 2025-11-08: 5 contributions</title></circle><circle cx="67.77" cy="168.93" r="1.9" fill="#ED0090"><title>2025-11-09 to 2025-11-15: 2 contributions</title></circle><circle cx="74.92" cy="173.00" r="1.9" fill="#ED0090"><title>2025-11-16 to 2025-11-22: 0 contributions</title></circle><circle cx="82.08" cy="173.00" r="1.9" fill="#ED0090"><title>2025-11-23 to 2025-11-29: 0 contributions</title></circle><circle cx="89.23" cy="170.96" r="1.9" fill="#ED0090"><title>2025-11-30 to 2025-12-06: 1 contributions</title></circle><circle cx="96.38" cy="166.89" r="1.9" fill="#ED0090"><title>2025-12-07 to 2025-12-13: 3 contributions</title></circle><circle cx="103.54" cy="122.07" r="1.9" fill="#ED0090"><title>2025-12-14 to 2025-12-20: 25 contributions</title></circle><circle cx="110.69" cy="166.89" r="1.9" fill="#ED0090"><title>2025-12-21 to 2025-12-27: 3 contributions</title></circle><circle cx="117.85" cy="128.19" r="1.9" fill="#ED0090"><title>2025-12-28 to 2026-01-03: 22 contributions</title></circle><circle cx="125.00" cy="173.00" r="1.9" fill="#ED0090"><title>2026-01-04 to 2026-01-10: 0 contributions</title></circle><circle cx="132.15" cy="173.00" r="1.9" fill="#ED0090"><title>2026-01-11 to 2026-01-17: 0 contributions</title></circle><circle cx="139.31" cy="173.00" r="1.9" fill="#ED0090"><title>2026-01-18 to 2026-01-24: 0 contributions</title></circle><circle cx="146.46" cy="173.00" r="1.9" fill="#ED0090"><title>2026-01-25 to 2026-01-31: 0 contributions</title></circle><circle cx="153.62" cy="173.00" r="1.9" fill="#ED0090"><title>2026-02-01 to 2026-02-07: 0 contributions</title></circle><circle cx="160.77" cy="173.00" r="1.9" fill="#ED0090"><title>2026-02-08 to 2026-02-14: 0 contributions</title></circle><circle cx="167.92" cy="173.00" r="1.9" fill="#ED0090"><title>2026-02-15 to 2026-02-21: 0 contributions</title></circle><circle cx="175.08" cy="164.85" r="1.9" fill="#ED0090"><title>2026-02-22 to 2026-02-28: 4 contributions</title></circle><circle cx="182.23" cy="166.89" r="1.9" fill="#ED0090"><title>2026-03-01 to 2026-03-07: 3 contributions</title></circle><circle cx="189.38" cy="164.85" r="1.9" fill="#ED0090"><title>2026-03-08 to 2026-03-14: 4 contributions</title></circle><circle cx="196.54" cy="168.93" r="1.9" fill="#ED0090"><title>2026-03-15 to 2026-03-21: 2 contributions</title></circle><circle cx="203.69" cy="166.89" r="1.9" fill="#ED0090"><title>2026-03-22 to 2026-03-28: 3 contributions</title></circle><circle cx="210.85" cy="111.89" r="1.9" fill="#ED0090"><title>2026-03-29 to 2026-04-04: 30 contributions</title></circle><circle cx="218.00" cy="132.26" r="1.9" fill="#ED0090"><title>2026-04-05 to 2026-04-11: 20 contributions</title></circle><circle cx="225.15" cy="156.70" r="1.9" fill="#ED0090"><title>2026-04-12 to 2026-04-18: 8 contributions</title></circle><circle cx="232.31" cy="144.48" r="1.9" fill="#ED0090"><title>2026-04-19 to 2026-04-25: 14 contributions</title></circle><circle cx="239.46" cy="132.26" r="1.9" fill="#ED0090"><title>2026-04-26 to 2026-05-02: 20 contributions</title></circle><circle cx="246.62" cy="173.00" r="1.9" fill="#ED0090"><title>2026-05-03 to 2026-05-09: 0 contributions</title></circle><circle cx="253.77" cy="173.00" r="1.9" fill="#ED0090"><title>2026-05-10 to 2026-05-16: 0 contributions</title></circle><circle cx="260.92" cy="173.00" r="1.9" fill="#ED0090"><title>2026-05-17 to 2026-05-23: 0 contributions</title></circle><circle cx="268.08" cy="173.00" r="1.9" fill="#ED0090"><title>2026-05-24 to 2026-05-30: 0 contributions</title></circle><circle cx="275.23" cy="168.93" r="1.9" fill="#ED0090"><title>2026-05-31 to 2026-06-06: 2 contributions</title></circle><circle cx="282.38" cy="173.00" r="1.9" fill="#ED0090"><title>2026-06-07 to 2026-06-13: 0 contributions</title></circle><circle cx="289.54" cy="173.00" r="1.9" fill="#ED0090"><title>2026-06-14 to 2026-06-20: 0 contributions</title></circle><circle cx="296.69" cy="170.96" r="1.9" fill="#ED0090"><title>2026-06-21 to 2026-06-27: 1 contributions</title></circle><circle cx="303.85" cy="173.00" r="1.9" fill="#ED0090"><title>2026-06-28 to 2026-07-04: 0 contributions</title></circle><circle cx="311.00" cy="158.74" r="1.9" fill="#ED0090"><title>2026-07-05 to 2026-07-11: 7 contributions</title></circle><circle cx="318.15" cy="124.11" r="1.9" fill="#ED0090"><title>2026-07-12 to 2026-07-18: 24 contributions</title></circle><circle cx="325.31" cy="148.56" r="1.9" fill="#ED0090"><title>2026-07-19 to 2026-07-25: 12 contributions</title></circle><circle cx="332.46" cy="126.15" r="1.9" fill="#ED0090"><title>2026-07-26 to 2026-08-01: 23 contributions</title></circle><circle cx="339.62" cy="73.19" r="1.9" fill="#ED0090"><title>2026-08-02 to 2026-08-08: 49 contributions</title></circle><circle cx="346.77" cy="126.15" r="1.9" fill="#ED0090"><title>2026-08-09 to 2026-08-15: 23 contributions</title></circle><circle cx="353.92" cy="111.89" r="1.9" fill="#ED0090"><title>2026-08-16 to 2026-08-22: 30 contributions</title></circle><circle cx="361.08" cy="128.19" r="1.9" fill="#ED0090"><title>2026-08-23 to 2026-08-29: 22 contributions</title></circle><circle cx="368.23" cy="120.04" r="1.9" fill="#ED0090"><title>2026-08-30 to 2026-09-05: 26 contributions</title></circle><circle cx="375.38" cy="77.26" r="1.9" fill="#ED0090"><title>2026-09-06 to 2026-09-12: 47 contributions</title></circle><circle cx="382.54" cy="67.07" r="1.9" fill="#ED0090"><title>2026-09-13 to 2026-09-19: 52 contributions</title></circle><circle cx="389.69" cy="118.00" r="1.9" fill="#ED0090"><title>2026-09-20 to 2026-09-26: 27 contributions</title></circle><circle cx="396.85" cy="130.22" r="1.9" fill="#ED0090"><title>2026-09-27 to 2026-10-03: 21 contributions</title></circle><circle cx="404.00" cy="166.89" r="1.9" fill="#ED0090"><title>2026-10-04 to 2026-10-05: 3 contributions</title></circle><text x="32.0" y="196" fill="#919BA6" font-size="11" text-anchor="start" >Oct 25</text><text x="125.0" y="196" fill="#919BA6" font-size="11" text-anchor="middle" >Jan</text><text x="218.0" y="196" fill="#919BA6" font-size="11" text-anchor="middle" >Apr</text><text x="311.0" y="196" fill="#919BA6" font-size="11" text-anchor="middle" >Jul</text><text x="404.0" y="196" fill="#919BA6" font-size="11" text-anchor="end" >Oct 26</text><text x="0" y="224" fill="#919BA6" font-size="10" text-anchor="start" >2025-10-05 — 2026-10-05</text><text x="420" y="224" fill="#919BA6" font-size="10" text-anchor="end" >Updated Oct 05, 11:29 UTC</text></g>
</svg>
